<svg height="496pt" viewBox="0 0 496 496" width="496pt" xmlns="http://www.w3.org/2000/svg"><path d="m89.632812 300.023438-17.632812-26.449219-17.632812 26.449219-6.445313-45.160157-15.84375 2.273438 8.984375 62.863281h19.21875l11.71875-17.574219 11.71875 17.574219h19.21875l8.984375-62.863281-15.84375-2.273438zm0 0"/><path d="m185.632812 300.023438-17.632812-26.449219-17.632812 26.449219-6.445313-45.160157-15.84375 2.273438 8.984375 62.863281h19.21875l11.71875-17.574219 11.71875 17.574219h19.21875l8.984375-62.863281-15.84375-2.273438zm0 0"/><path d="m281.632812 300.023438-17.632812-26.449219-17.632812 26.449219-6.445313-45.160157-15.84375 2.273438 8.984375 62.863281h19.21875l11.71875-17.574219 11.71875 17.574219h19.21875l8.984375-62.863281-15.84375-2.273438zm0 0"/><path d="m440 273.855469v-9.855469c0-13.230469-10.769531-24-24-24v-20.625c0-8.488281 5.089844-15.992188 12.960938-19.144531l44.015624-17.605469c13.984376-5.59375 23.023438-18.9375 23.023438-34 0-20.191406-16.433594-36.625-36.625-36.625h-171.78125c-4.144531-62.441406-56.121094-112-119.59375-112-66.167969 0-120 53.832031-120 120 0 44.464844 24.359375 83.273438 60.382812 104h-84.382812c-13.230469 0-24 10.769531-24 24v80c0 13.230469 10.769531 24 24 24h288c2.816406 0 5.488281-.574219 8-1.472656v57.472656c0 48.519531 39.480469 88 88 88s88-39.480469 88-88v-64c0-34.199219-23.984375-62.839844-56-70.144531zm-16-9.855469v8h-32v-8c0-4.414062 3.585938-8 8-8h16c4.414062 0 8 3.585938 8 8zm-8 80v32c0 4.414062-3.585938 8-8 8s-8-3.585938-8-8v-32c0-4.414062 3.585938-8 8-8s8 3.585938 8 8zm-16-22.527344c-9.289062 3.3125-16 12.113282-16 22.527344v8h-48v-8c0-30.871094 25.128906-56 56-56h8zm80-172.847656c0 8.488281-5.089844 15.992188-12.960938 19.144531l-44.015624 17.605469c-13.984376 5.59375-23.023438 18.9375-23.023438 34v20.625c-13.230469 0-24 10.769531-24 24v9.855469c-16.015625 3.648437-30.007812 12.625-40 24.992187v-50.847656c0-13.230469-10.769531-24-24-24h-84.382812c33.832031-19.472656 57.246093-54.910156 59.984374-96h171.78125c11.371094 0 20.617188 9.246094 20.617188 20.625zm-208-28.625c0 20.121094-5.839844 38.863281-15.777344 54.800781l-22-13.199219c-6.3125-3.777343-10.222656-10.707031-10.222656-18.058593 0-7.054688 3.503906-13.597657 9.375-17.511719l4.105469-2.734375c6.582031-4.394531 10.519531-11.746094 10.519531-19.664063 0-4.207031 3.425781-7.632812 7.632812-7.632812h13.457032c1.839844 7.71875 2.910156 15.726562 2.910156 24zm-8.023438-40h-8.34375c-13.03125 0-23.632812 10.601562-23.632812 23.632812 0 2.558594-1.265625 4.925782-3.398438 6.351563l-4.105468 2.734375c-10.328125 6.890625-16.496094 18.417969-16.496094 30.824219 0 12.945312 6.894531 25.128906 17.992188 31.777343l20.726562 12.441407c-12.34375 14.316406-28.472656 25.253906-46.855469 31.199219-.679687-10.296876-7.429687-19.242188-17.335937-22.546876-3.902344-1.300781-6.527344-4.941406-6.527344-9.0625v-7.222656c0-9.535156-3.152344-18.992187-8.871094-26.625-12.015625-16.03125-33.417968-22-51.976562-14.574218l-7.625 3.046874c-3.359375 1.34375-6.902344 2.023438-10.535156 2.023438h-30.089844c-1.230469-5.199219-2.078125-10.535156-2.503906-16h21.707031c14.078125 0 26.742187-7.832031 33.046875-20.425781 3.574218-7.132813 10.75-11.574219 18.734375-11.574219h7.417969c12.519531 0 22.695312-10.175781 22.695312-23.183594 0-9.28125 7.503906-16.816406 16.71875-16.816406 12.832031 0 23.28125-10.449219 23.28125-23.28125v-8.695312c25.222656 10.550781 45.425781 30.753906 55.976562 55.976562zm-95.976562-64c8.273438 0 16.28125 1.070312 24 2.902344v13.816406c0 4.015625-3.265625 7.28125-7.28125 7.28125-18.039062 0-32.71875 14.71875-32.71875 33.3125 0 3.6875-3 6.6875-6.695312 6.6875h-7.417969c-14.078125 0-26.742188 7.832031-33.046875 20.425781-3.566406 7.132813-10.742188 11.574219-18.726563 11.574219h-21.707031c4.113281-53.609375 48.953125-96 103.59375-96zm-95.976562 144h24.96875c5.679687 0 11.222656-1.070312 16.480468-3.167969l7.617188-3.046875c11.902344-4.761718 25.550781-.929687 33.238281 9.3125 3.65625 4.878906 5.671875 10.925782 5.671875 17.03125v7.222656c0 11.007813 7.023438 20.753907 17.472656 24.234376 3.902344 1.300781 6.527344 4.941406 6.527344 9.0625v1.992187c-5.230469.808594-10.542969 1.359375-16 1.359375-43.175781 0-80.273438-26.457031-95.976562-64zm239.976562 176h-288c-4.414062 0-8-3.585938-8-8v-80c0-4.414062 3.585938-8 8-8h288c4.414062 0 8 3.585938 8 8v80c0 4.414062-3.585938 8-8 8zm74.847656 140.816406c4.074219-7.671875 12.113282-12.816406 21.152344-12.816406 9.03125 0 17.070312 5.144531 21.152344 12.816406-6.695313 2.0625-13.792969 3.183594-21.152344 3.183594s-14.457031-1.121094-21.152344-3.183594zm56.914063-6.410156c-6.617188-13.367188-20.3125-22.40625-35.761719-22.40625-15.457031 0-29.152344 9.03125-35.761719 22.40625-21.613281-12.4375-36.238281-35.726562-36.238281-62.40625v-40h48v8c0 13.230469 10.769531 24 24 24s24-10.769531 24-24v-8h48v40c0 26.679688-14.625 49.96875-36.238281 62.40625zm36.238281-118.40625h-48v-8c0-10.414062-6.710938-19.214844-16-22.527344v-33.472656h8c30.871094 0 56 25.128906 56 56zm0 0"/></svg>